<svg id="Layer_1" data-name="Layer 1" xmlns="http://www.w3.org/2000/svg" viewBox="0 0 611.83 304.83"><defs><style>.cls-1{fill:#fff;}.cls-2{fill:#ea4335;}.cls-3{fill:#4285f4;}.cls-4{fill:#fbbc04;}.cls-5{fill:#0f9d58;}</style></defs><path class="cls-1" d="M112.69,158.71a30.21,30.21,0,0,1,2-11.29A25,25,0,0,1,120,139a22.64,22.64,0,0,1,7.88-5.19,25.69,25.69,0,0,1,9.55-1.79,22,22,0,0,1,10,2.36,16.18,16.18,0,0,1,7.19,7.3H156V112.09h8.19v73.5H156v-8h-1.26a15.29,15.29,0,0,1-3.2,4.2,19.18,19.18,0,0,1-4.2,2.94,20.37,20.37,0,0,1-4.78,1.73,21.34,21.34,0,0,1-4.83.58,26.26,26.26,0,0,1-9.76-1.78,23,23,0,0,1-13.29-13.5,31.29,31.29,0,0,1-1.94-11.39Zm9.77,9.56a16.58,16.58,0,0,0,3.62,5.93,16.24,16.24,0,0,0,5.51,3.78,17.75,17.75,0,0,0,6.93,1.31,17,17,0,0,0,6.83-1.36,16.5,16.5,0,0,0,5.51-3.89,18.55,18.55,0,0,0,3.73-6,21.64,21.64,0,0,0,1.36-7.82v-1.26a21.4,21.4,0,0,0-1.36-7.72,18.61,18.61,0,0,0-3.73-6,16.9,16.9,0,0,0-5.57-3.94,16.44,16.44,0,0,0-6.77-1.42,17.39,17.39,0,0,0-6.88,1.37,16.27,16.27,0,0,0-5.56,3.88,18,18,0,0,0-3.68,6,21.57,21.57,0,0,0-1.31,7.66v1.68A21.38,21.38,0,0,0,122.46,168.27Z"/><path class="cls-1" d="M173.49,160.18v-2.52a26.4,26.4,0,0,1,1.94-10.18,24.17,24.17,0,0,1,5.41-8.14A25.52,25.52,0,0,1,189,134,26.28,26.28,0,0,1,199.11,132a24.32,24.32,0,0,1,11.07,2.36,24.78,24.78,0,0,1,7.67,5.83,24.13,24.13,0,0,1,5.83,15.12v6.72h-42c.21,5.18,1.81,9.35,4.83,12.5s7.2,4.72,12.6,4.72a21.87,21.87,0,0,0,6.4-.84,14.89,14.89,0,0,0,4.67-2.31,12.4,12.4,0,0,0,3.15-3.41,19.93,19.93,0,0,0,1.95-4.15l7.77,2.1a23,23,0,0,1-8.14,11.81q-5.94,4.57-16,4.57a26.46,26.46,0,0,1-10.24-1.94,22.9,22.9,0,0,1-8-5.51,25.48,25.48,0,0,1-5.25-8.51A30.31,30.31,0,0,1,173.49,160.18Zm8.4-5.67h33.6a15.35,15.35,0,0,0-1.63-6.09,14.92,14.92,0,0,0-3.68-4.62,17,17,0,0,0-5.14-2.94,17.24,17.24,0,0,0-5.93-1.05,18.64,18.64,0,0,0-6.46,1.1,16.37,16.37,0,0,0-8.93,7.77A17.14,17.14,0,0,0,181.89,154.51Z"/><path class="cls-1" d="M237.85,133.51l16,48.3h1.26l16-48.3h9.66l-18.16,52.08H246.36l-18.17-52.08Z"/><path class="cls-1" d="M303.61,133.51V120.28a8.08,8.08,0,0,1,2.25-5.88,7.8,7.8,0,0,1,5.83-2.31h20.58v7.56H314.63c-1.89,0-2.83,1-2.83,3.15v10.71h21.73v7.56H311.8v44.52h-8.19V141.07H287.54v-7.56Z"/><path class="cls-1" d="M336.18,160.18v-2.52a26.59,26.59,0,0,1,1.94-10.18,24.32,24.32,0,0,1,5.41-8.14,25.45,25.45,0,0,1,8.14-5.36A26.19,26.19,0,0,1,361.8,132a24.37,24.37,0,0,1,11.08,2.36,24.74,24.74,0,0,1,7.66,5.83,22.86,22.86,0,0,1,4.41,7.56,23.12,23.12,0,0,1,1.42,7.56v6.72h-42q.31,7.77,4.83,12.5t12.6,4.72a21.83,21.83,0,0,0,6.4-.84,15.05,15.05,0,0,0,4.68-2.31,12.71,12.71,0,0,0,3.15-3.41,19.89,19.89,0,0,0,1.94-4.15l7.77,2.1a22.94,22.94,0,0,1-8.14,11.81q-5.93,4.57-16,4.57a26.53,26.53,0,0,1-10.24-1.94,23,23,0,0,1-8-5.51,25.64,25.64,0,0,1-5.25-8.51A30.31,30.31,0,0,1,336.18,160.18Zm8.4-5.67h33.6a15,15,0,0,0-5.3-10.71,17,17,0,0,0-5.15-2.94,17.2,17.2,0,0,0-5.93-1.05,18.69,18.69,0,0,0-6.46,1.1,16.3,16.3,0,0,0-8.92,7.77A17.15,17.15,0,0,0,344.58,154.51Z"/><path class="cls-1" d="M402.64,166.27a13.94,13.94,0,0,0,4.62,9.61q4.1,3.62,10.92,3.62,5.77,0,9.29-2.26a7.12,7.12,0,0,0,3.52-6.35,6.6,6.6,0,0,0-3.46-6.3q-3.46-1.89-11.24-2.41-9-.63-13.86-4.2t-4.83-10.4V147a12.91,12.91,0,0,1,1.58-6.46,14.25,14.25,0,0,1,4.25-4.67,19.4,19.4,0,0,1,6-2.83,25.77,25.77,0,0,1,7-1,26.18,26.18,0,0,1,9,1.42,20.8,20.8,0,0,1,6.51,3.67,16,16,0,0,1,4,5.2,19.9,19.9,0,0,1,1.84,5.88l-7.77,1.89a11.13,11.13,0,0,0-4-7.87,14.21,14.21,0,0,0-9.19-2.84,19.09,19.09,0,0,0-4.25.47,12.49,12.49,0,0,0-3.62,1.42,7.83,7.83,0,0,0-2.52,2.36,5.85,5.85,0,0,0-.95,3.31,6.42,6.42,0,0,0,3.2,5.78q3.21,2,11.71,2.62,9.13.74,13.91,4.36t4.78,10.55v.63a14.76,14.76,0,0,1-1.52,6.77,15.21,15.21,0,0,1-4.2,5.1A19.05,19.05,0,0,1,427,186a30.33,30.33,0,0,1-8.35,1.1,29.83,29.83,0,0,1-10.45-1.63,21.61,21.61,0,0,1-7.24-4.3,18,18,0,0,1-4.36-6.09,20.4,20.4,0,0,1-1.68-6.88Z"/><path class="cls-1" d="M444.65,133.51H461V112.09h8.19v21.42h20.16v7.56H469.22v33.81c0,2.1.94,3.15,2.83,3.15h14.81v7.56H469.11a7.8,7.8,0,0,1-5.83-2.31A8.08,8.08,0,0,1,461,177.4V141.07H444.65Z"/><path class="cls-1" d="M145.35,239.65v14.4h-4.2v-35h12.5a12.9,12.9,0,0,1,4.7.77,9.64,9.64,0,0,1,3.32,2.08,8.4,8.4,0,0,1,2,3,9.88,9.88,0,0,1,.68,3.63v1.5a10.1,10.1,0,0,1-.68,3.65,8.6,8.6,0,0,1-2,3.07,9.86,9.86,0,0,1-3.35,2.1,12.73,12.73,0,0,1-4.65.78Zm0-3.9h7.8q7,0,7-6v-.9a5.61,5.61,0,0,0-1.73-4.28c-1.15-1.08-2.9-1.62-5.27-1.62h-7.8Z"/><path class="cls-1" d="M195.25,242a13.58,13.58,0,0,1-1,5.47,12,12,0,0,1-2.72,4,11.44,11.44,0,0,1-4,2.48,13.61,13.61,0,0,1-9.47,0,11.5,11.5,0,0,1-4-2.48,12.12,12.12,0,0,1-2.73-4,13.76,13.76,0,0,1-1-5.47v-.6a13.66,13.66,0,0,1,1-5.43,12.27,12.27,0,0,1,2.75-4,11.56,11.56,0,0,1,4-2.5,13.42,13.42,0,0,1,9.4,0,11.52,11.52,0,0,1,4,2.5,12.12,12.12,0,0,1,2.75,4,13.49,13.49,0,0,1,1,5.43Zm-12.45,9.1a8.57,8.57,0,0,0,3.32-.63,7.64,7.64,0,0,0,2.68-1.82,8.48,8.48,0,0,0,1.8-2.88,10.42,10.42,0,0,0,.65-3.77v-.6a10.16,10.16,0,0,0-.65-3.68,8.35,8.35,0,0,0-4.5-4.75,8.46,8.46,0,0,0-6.6,0,8.35,8.35,0,0,0-4.5,4.75,10.16,10.16,0,0,0-.65,3.68v.6a10.42,10.42,0,0,0,.65,3.77,8.48,8.48,0,0,0,1.8,2.88,7.69,7.69,0,0,0,2.67,1.82A8.66,8.66,0,0,0,182.8,251.05Z"/><path class="cls-1" d="M202.45,250.45h9v-27.8h-8.7v-3.6h12.6v31.4h9v3.6h-21.9Z"/><path class="cls-1" d="M251.05,249.85h-.6a8.16,8.16,0,0,1-3.33,3.7,9,9,0,0,1-4.47,1.2,12.31,12.31,0,0,1-4.55-.83,10.38,10.38,0,0,1-3.68-2.45,11.58,11.58,0,0,1-2.47-4,15.22,15.22,0,0,1-.9-5.45v-.8a15,15,0,0,1,.9-5.4,11.53,11.53,0,0,1,2.47-4,10.56,10.56,0,0,1,3.68-2.47,11.67,11.67,0,0,1,4.45-.85,9.51,9.51,0,0,1,4.62,1.12,7.87,7.87,0,0,1,3.28,3.48h.6v-3.9H255V249q0,1.5,1.35,1.5h1.25v3.6H254.9a3.73,3.73,0,0,1-2.78-1.1,3.88,3.88,0,0,1-1.07-2.8Zm-8,1.2a8,8,0,0,0,3.22-.65,7.18,7.18,0,0,0,2.53-1.85,8.83,8.83,0,0,0,1.65-2.88,11,11,0,0,0,.6-3.72v-.6a10.84,10.84,0,0,0-.6-3.68,8.5,8.5,0,0,0-1.68-2.87,7.73,7.73,0,0,0-11.45-.08,8.45,8.45,0,0,0-1.67,2.85,10.84,10.84,0,0,0-.6,3.68v.8a9.31,9.31,0,0,0,2.22,6.62A7.55,7.55,0,0,0,243.05,251.05Z"/><path class="cls-1" d="M267.55,254.05h-3.9v-24.8h3.9v4.2h.6q2.3-4.9,8-4.9a9,9,0,0,1,6.85,2.67c1.7,1.79,2.55,4.46,2.55,8v14.8h-3.9v-14c0-2.6-.59-4.55-1.75-5.85a6.07,6.07,0,0,0-4.75-1.95,6.86,6.86,0,0,0-5.58,2.42,9.8,9.8,0,0,0-2,6.48Z"/><path class="cls-1" d="M313.45,250.25h-.6a7.34,7.34,0,0,1-1.53,2,9.12,9.12,0,0,1-2,1.4,9.75,9.75,0,0,1-2.27.82,10.54,10.54,0,0,1-2.3.28,12.64,12.64,0,0,1-4.65-.85,10.92,10.92,0,0,1-6.33-6.43,15,15,0,0,1-.92-5.42v-.8a14.25,14.25,0,0,1,.95-5.38,11.83,11.83,0,0,1,2.55-4,10.57,10.57,0,0,1,3.75-2.47,12.18,12.18,0,0,1,4.55-.85,10.4,10.4,0,0,1,4.77,1.12,7.66,7.66,0,0,1,3.43,3.48h.6v-14.1h3.9v35h-3.9Zm-8.3.8a8.17,8.17,0,0,0,3.25-.65,7.91,7.91,0,0,0,2.62-1.85,8.92,8.92,0,0,0,1.78-2.88,10.3,10.3,0,0,0,.65-3.72v-.6a10.16,10.16,0,0,0-.65-3.68A8.87,8.87,0,0,0,311,234.8a8,8,0,0,0-2.65-1.88,7.84,7.84,0,0,0-3.22-.67,8.17,8.17,0,0,0-3.28.65,7.78,7.78,0,0,0-2.65,1.85,8.59,8.59,0,0,0-1.75,2.85,10.35,10.35,0,0,0-.62,3.65v.8a10.68,10.68,0,0,0,.62,3.75,8.26,8.26,0,0,0,1.75,2.82,7.67,7.67,0,0,0,2.63,1.8A8.44,8.44,0,0,0,305.15,251.05Z"/><path class="cls-1" d="M354.48,230.55a13.41,13.41,0,0,1,.8-4.6,11.56,11.56,0,0,1,2.35-3.9,11,11,0,0,1,3.85-2.7,13.12,13.12,0,0,1,5.3-1,14,14,0,0,1,5.3.92,11.25,11.25,0,0,1,3.75,2.45,9.81,9.81,0,0,1,2.22,3.45,10.94,10.94,0,0,1,.73,3.93v.9a9.92,9.92,0,0,1-2.5,6.82q-2.5,2.84-8,4a18.22,18.22,0,0,0-7,2.77,6,6,0,0,0-2.25,5v1.5h19.5v3.9h-23.7v-6a10.19,10.19,0,0,1,.8-4.18,8.74,8.74,0,0,1,2.27-3.05,12.66,12.66,0,0,1,3.58-2.12,30.37,30.37,0,0,1,4.75-1.45q4.45-1,6.42-2.85a6,6,0,0,0,2-4.55v-.3a8,8,0,0,0-.45-2.65,6.69,6.69,0,0,0-3.83-4,9.08,9.08,0,0,0-3.52-.62,7.64,7.64,0,0,0-6,2.35,9,9,0,0,0-2.12,6.25v2.2h-4.2Z"/><path class="cls-1" d="M388.13,222.1q3.25-3.75,9.05-3.75t9.05,3.75q3.25,3.75,3.25,10.55v7.8q0,7-3.25,10.65t-9.05,3.65q-5.81,0-9.05-3.65t-3.25-10.65v-7.8Q384.88,225.84,388.13,222.1Zm.95,10.85v7.2q0,5.15,2,8a7.94,7.94,0,0,0,12.15,0q2-2.82,2-8V233a18.05,18.05,0,0,0-.5-4.38,9.81,9.81,0,0,0-1.53-3.4A7.16,7.16,0,0,0,400.7,223a7.47,7.47,0,0,0-9.6,2.22,10,10,0,0,0-1.52,3.4A18.05,18.05,0,0,0,389.08,233Z"/><path class="cls-1" d="M415.68,230.55a13.41,13.41,0,0,1,.8-4.6,11.56,11.56,0,0,1,2.35-3.9,10.87,10.87,0,0,1,3.85-2.7,13.12,13.12,0,0,1,5.3-1,14,14,0,0,1,5.3.92,11.25,11.25,0,0,1,3.75,2.45,9.81,9.81,0,0,1,2.22,3.45,10.94,10.94,0,0,1,.73,3.93v.9a10,10,0,0,1-2.5,6.82q-2.5,2.84-8,4a18.22,18.22,0,0,0-7.05,2.77,6,6,0,0,0-2.25,5v1.5h19.5v3.9H416v-6a10.19,10.19,0,0,1,.8-4.18,8.74,8.74,0,0,1,2.27-3.05,12.66,12.66,0,0,1,3.58-2.12,30.37,30.37,0,0,1,4.75-1.45c3-.67,5.11-1.62,6.42-2.85a6,6,0,0,0,2-4.55v-.3a8,8,0,0,0-.45-2.65,6.69,6.69,0,0,0-3.83-4,9.12,9.12,0,0,0-3.52-.62,7.64,7.64,0,0,0-6,2.35,9,9,0,0,0-2.12,6.25v2.2h-4.2Z"/><path class="cls-1" d="M449.33,222.1q3.24-3.75,9.05-3.75t9.05,3.75q3.24,3.75,3.25,10.55v7.8q0,7-3.25,10.65t-9.05,3.65q-5.81,0-9.05-3.65t-3.25-10.65v-7.8Q446.08,225.84,449.33,222.1Zm.95,10.85v7.2q0,5.15,2,8a7.94,7.94,0,0,0,12.15,0q2-2.82,2-8V233a18.05,18.05,0,0,0-.5-4.38,10,10,0,0,0-1.53-3.4A7.16,7.16,0,0,0,461.9,223a7.47,7.47,0,0,0-9.6,2.22,10,10,0,0,0-1.52,3.4A17.57,17.57,0,0,0,450.28,233Z"/><path class="cls-2" d="M238,66.43,249.13,60a5.5,5.5,0,0,0-5.5-9.53L224.32,61.6Z"/><path class="cls-3" d="M246.38,83a5.5,5.5,0,0,0,2.75-10.26L229.82,61.6a5.5,5.5,0,0,0-5.5,9.53l19.31,11.15A5.48,5.48,0,0,0,246.38,83Z"/><path class="cls-4" d="M265.59,83a5.44,5.44,0,0,0,2.74-.73l19.31-11.15L274.18,66.2l-11.35,6.55A5.5,5.5,0,0,0,265.59,83Z"/><path class="cls-5" d="M284.89,71.86a5.5,5.5,0,0,0,2.75-10.26L268.33,50.45a5.5,5.5,0,0,0-5.5,9.53l19.31,11.15A5.5,5.5,0,0,0,284.89,71.86Z"/><path class="cls-1" d="M312.23,77.41a12.25,12.25,0,0,1-4.57-4.58,13,13,0,0,1,0-12.88,12.42,12.42,0,0,1,10.88-6.24,13.22,13.22,0,0,1,5,.95,10,10,0,0,1,3.88,2.68l-2.07,2.07a7.49,7.49,0,0,0-2.95-2.19,10,10,0,0,0-8.66.47,9.41,9.41,0,0,0-3.56,3.5,10.78,10.78,0,0,0,0,10.41,9.41,9.41,0,0,0,3.57,3.49,10.43,10.43,0,0,0,8.87.47,9,9,0,0,0,2.83-2,7.48,7.48,0,0,0,1.43-2.29,10.17,10.17,0,0,0,.68-3h-9V65.61h11.66a9.41,9.41,0,0,1,.17,1.76,13.41,13.41,0,0,1-.71,4.36,9.59,9.59,0,0,1-2.27,3.72,11.56,11.56,0,0,1-8.92,3.62A12.4,12.4,0,0,1,312.23,77.41Z"/><path class="cls-1" d="M334,54.25h7.32a13.23,13.23,0,0,1,6.52,1.54,10.69,10.69,0,0,1,4.27,4.29,14.11,14.11,0,0,1,0,12.62A10.69,10.69,0,0,1,347.88,77a13.23,13.23,0,0,1-6.52,1.54H334Zm7.32,21.54a9.37,9.37,0,0,0,6.84-2.48,9.26,9.26,0,0,0,2.52-6.92,9.26,9.26,0,0,0-2.52-6.92A9.37,9.37,0,0,0,341.36,57h-4.47V75.79Z"/><path class="cls-1" d="M362.29,77.41a12.28,12.28,0,0,1-4.58-4.58,13,13,0,0,1,0-12.88,12.45,12.45,0,0,1,10.89-6.24,13.2,13.2,0,0,1,5,.95,10,10,0,0,1,3.88,2.68l-2.06,2.07a7.57,7.57,0,0,0-2.95-2.19,10,10,0,0,0-8.67.47,9.41,9.41,0,0,0-3.56,3.5,10.78,10.78,0,0,0,0,10.41,9.44,9.44,0,0,0,3.58,3.49,10.43,10.43,0,0,0,8.87.47,9.15,9.15,0,0,0,2.83-2A7.45,7.45,0,0,0,377,71.26a10.17,10.17,0,0,0,.68-3h-9V65.61h11.67a10.34,10.34,0,0,1,.17,1.76,13.69,13.69,0,0,1-.71,4.36,9.73,9.73,0,0,1-2.28,3.72,11.54,11.54,0,0,1-8.91,3.62A12.37,12.37,0,0,1,362.29,77.41Z"/></svg>