<svg id="Layer_1" data-name="Layer 1" xmlns="http://www.w3.org/2000/svg" viewBox="0 0 268 64"><defs><style>.cls-1{fill:#ea4335;}.cls-2{fill:#4285f4;}.cls-3{fill:#fbbc04;}.cls-4{fill:#0f9d58;}.cls-5{fill:#0005df;}</style></defs><path class="cls-1" d="M26.44,33.55l13.38-7.72a6.58,6.58,0,0,0-6.59-11.4L10.12,27.77Z"/><path class="cls-2" d="M36.52,53.4a6.59,6.59,0,0,0,3.3-12.29L16.7,27.77a6.58,6.58,0,0,0-6.58,11.4L33.23,52.51A6.56,6.56,0,0,0,36.52,53.4Z"/><path class="cls-3" d="M59.51,53.4a6.5,6.5,0,0,0,3.28-.89L85.91,39.17,69.8,33.27,56.21,41.11a6.59,6.59,0,0,0,3.3,12.29Z"/><path class="cls-4" d="M82.61,40.05a6.58,6.58,0,0,0,3.3-12.28L62.79,14.43a6.58,6.58,0,1,0-6.58,11.4L79.33,39.17A6.49,6.49,0,0,0,82.61,40.05Z"/><path class="cls-5" d="M110.76,25.72a11,11,0,0,1,.73-4.13,9.29,9.29,0,0,1,2-3.08,8.36,8.36,0,0,1,2.88-1.9,9.54,9.54,0,0,1,3.5-.65,8.09,8.09,0,0,1,3.67.86,5.91,5.91,0,0,1,2.63,2.67h.46V8.66h3v26.9h-3V32.64h-.46A5.19,5.19,0,0,1,125,34.17a6.7,6.7,0,0,1-1.54,1.08,8.14,8.14,0,0,1-3.51.85,9.58,9.58,0,0,1-3.58-.66,8.49,8.49,0,0,1-2.9-1.88,8.71,8.71,0,0,1-2-3.06,11.46,11.46,0,0,1-.71-4.17Zm3.57,3.5a6.14,6.14,0,0,0,1.33,2.17,6,6,0,0,0,2,1.38,6.53,6.53,0,0,0,2.54.48,6.09,6.09,0,0,0,2.49-.5,5.93,5.93,0,0,0,2-1.42,6.77,6.77,0,0,0,1.37-2.21,7.91,7.91,0,0,0,.49-2.86V25.8A7.82,7.82,0,0,0,126.1,23a6.88,6.88,0,0,0-1.37-2.21,6.29,6.29,0,0,0-2-1.44,6,6,0,0,0-2.47-.52,6.4,6.4,0,0,0-2.52.5,6,6,0,0,0-2,1.42,6.59,6.59,0,0,0-1.34,2.19,7.89,7.89,0,0,0-.48,2.81v.61A7.93,7.93,0,0,0,114.33,29.22Z"/><path class="cls-5" d="M133,26.26v-.92a9.75,9.75,0,0,1,.71-3.73,8.93,8.93,0,0,1,2-3,9.3,9.3,0,0,1,3-2,9.47,9.47,0,0,1,3.71-.71,9,9,0,0,1,4.06.86,9.13,9.13,0,0,1,2.8,2.14,8.23,8.23,0,0,1,1.61,2.76,8.4,8.4,0,0,1,.52,2.77V27H136a6.76,6.76,0,0,0,1.77,4.57,6,6,0,0,0,4.61,1.73,7.76,7.76,0,0,0,2.34-.31,5.41,5.41,0,0,0,1.72-.84,4.85,4.85,0,0,0,1.15-1.25,7.28,7.28,0,0,0,.71-1.52l2.84.77a8.32,8.32,0,0,1-3,4.32,9.32,9.32,0,0,1-5.86,1.68,9.73,9.73,0,0,1-3.74-.71,8.53,8.53,0,0,1-2.94-2,9.5,9.5,0,0,1-1.93-3.12A11.07,11.07,0,0,1,133,26.26Zm3.08-2.08h12.3a5.63,5.63,0,0,0-.6-2.23,5.57,5.57,0,0,0-1.34-1.69,6.52,6.52,0,0,0-4.06-1.46,7,7,0,0,0-2.36.4,6,6,0,0,0-1.92,1.14,6,6,0,0,0-1.35,1.71A6.11,6.11,0,0,0,136.09,24.18Z"/><path class="cls-5" d="M156.57,16.5l5.84,17.67h.46l5.85-17.67h3.53L165.6,35.56h-5.91L153,16.5Z"/><path class="cls-5" d="M180.64,16.5V11.65a3,3,0,0,1,.83-2.15,2.85,2.85,0,0,1,2.13-.84h7.53v2.76h-6.45c-.7,0-1,.39-1,1.16V16.5h8v2.76h-8v16.3h-3V19.26h-5.88V16.5Z"/><path class="cls-5" d="M192.56,26.26v-.92a9.75,9.75,0,0,1,.71-3.73,8.93,8.93,0,0,1,2-3,9.3,9.3,0,0,1,3-2,9.47,9.47,0,0,1,3.71-.71,9,9,0,0,1,4.06.86A9.13,9.13,0,0,1,208.8,19a8.23,8.23,0,0,1,1.61,2.76,8.4,8.4,0,0,1,.52,2.77V27H195.56a6.76,6.76,0,0,0,1.77,4.57,6,6,0,0,0,4.61,1.73,7.76,7.76,0,0,0,2.34-.31A5.41,5.41,0,0,0,206,32.1a4.85,4.85,0,0,0,1.15-1.25,7.28,7.28,0,0,0,.71-1.52l2.84.77a8.38,8.38,0,0,1-3,4.32,9.32,9.32,0,0,1-5.86,1.68,9.73,9.73,0,0,1-3.74-.71,8.53,8.53,0,0,1-2.94-2,9.5,9.5,0,0,1-1.93-3.12A11.07,11.07,0,0,1,192.56,26.26Zm3.08-2.08h12.3a5.63,5.63,0,0,0-.6-2.23A5.57,5.57,0,0,0,206,20.26a6.52,6.52,0,0,0-4.06-1.46,7,7,0,0,0-2.36.4,6,6,0,0,0-1.92,1.14,6,6,0,0,0-1.35,1.71A6.11,6.11,0,0,0,195.64,24.18Z"/><path class="cls-5" d="M216.89,28.49A5.08,5.08,0,0,0,218.58,32a5.79,5.79,0,0,0,4,1.33,6.22,6.22,0,0,0,3.4-.83,2.6,2.6,0,0,0,1.29-2.32A2.43,2.43,0,0,0,226,27.87a10.69,10.69,0,0,0-4.11-.88,9.67,9.67,0,0,1-5.08-1.54,4.43,4.43,0,0,1-1.77-3.8v-.23a4.78,4.78,0,0,1,.58-2.37,5.2,5.2,0,0,1,1.56-1.71,7.14,7.14,0,0,1,2.21-1,10.38,10.38,0,0,1,5.88.18,7.47,7.47,0,0,1,2.38,1.34,6,6,0,0,1,1.48,1.9,7.18,7.18,0,0,1,.67,2.16l-2.84.69a4.06,4.06,0,0,0-1.48-2.88,5.15,5.15,0,0,0-3.36-1,7.24,7.24,0,0,0-1.56.17,4.79,4.79,0,0,0-1.33.52,2.93,2.93,0,0,0-.92.86,2.15,2.15,0,0,0-.34,1.22,2.35,2.35,0,0,0,1.17,2.11,10.14,10.14,0,0,0,4.28,1,9.74,9.74,0,0,1,5.1,1.59A4.58,4.58,0,0,1,230.26,30v.23a5.42,5.42,0,0,1-.55,2.48,5.65,5.65,0,0,1-1.54,1.86,7,7,0,0,1-2.38,1.17,11,11,0,0,1-3.06.41,10.83,10.83,0,0,1-3.82-.6,7.75,7.75,0,0,1-2.65-1.58,6.49,6.49,0,0,1-1.6-2.22,7.49,7.49,0,0,1-.61-2.52Z"/><path class="cls-5" d="M232.26,16.5h6V8.66h3V16.5h7.38v2.76h-7.38V31.64c0,.77.34,1.15,1,1.15h5.41v2.77h-6.49a2.82,2.82,0,0,1-2.13-.85,3,3,0,0,1-.83-2.15V19.26h-6Z"/><path class="cls-5" d="M122.71,50.34v5.27h-1.53V42.8h4.57a4.73,4.73,0,0,1,1.72.29,3.47,3.47,0,0,1,1.22.76,3,3,0,0,1,.73,1.1,3.53,3.53,0,0,1,.25,1.33v.55a3.62,3.62,0,0,1-.25,1.34,3.09,3.09,0,0,1-.74,1.12,3.63,3.63,0,0,1-1.23.77,4.62,4.62,0,0,1-1.7.28Zm0-1.42h2.86c1.71,0,2.56-.74,2.56-2.2v-.33a2,2,0,0,0-.63-1.56,2.71,2.71,0,0,0-1.93-.6h-2.86Z"/><path class="cls-5" d="M141,51.19a5,5,0,0,1-.38,2,4.38,4.38,0,0,1-1,1.46,4.24,4.24,0,0,1-1.46.91,5,5,0,0,1-3.47,0,4.15,4.15,0,0,1-1.44-.91,4.26,4.26,0,0,1-1-1.46,5,5,0,0,1-.38-2V51a5,5,0,0,1,.38-2,4.42,4.42,0,0,1,1-1.47,4.17,4.17,0,0,1,1.45-.92,4.93,4.93,0,0,1,3.44,0,4.21,4.21,0,0,1,1.46.92,4.4,4.4,0,0,1,1,1.47,5,5,0,0,1,.38,2Zm-4.56,3.33a3.23,3.23,0,0,0,1.22-.23,3,3,0,0,0,1-.67,3.13,3.13,0,0,0,.66-1,3.77,3.77,0,0,0,.23-1.38V51a3.68,3.68,0,0,0-.23-1.35,3.07,3.07,0,0,0-1.65-1.74,3.05,3.05,0,0,0-2.42,0,3.22,3.22,0,0,0-1,.69,3.13,3.13,0,0,0-.66,1,3.68,3.68,0,0,0-.24,1.35v.22a3.77,3.77,0,0,0,.24,1.38,3.13,3.13,0,0,0,.66,1,3,3,0,0,0,1,.67A3.27,3.27,0,0,0,136.42,54.52Z"/><path class="cls-5" d="M143.61,54.3h3.3V44.12h-3.19V42.8h4.62V54.3h3.29v1.31h-8Z"/><path class="cls-5" d="M161.4,54.08h-.22A3,3,0,0,1,160,55.43a3.33,3.33,0,0,1-1.64.44,4.59,4.59,0,0,1-1.67-.3,3.69,3.69,0,0,1-1.34-.9,4.21,4.21,0,0,1-.91-1.45,5.59,5.59,0,0,1-.33-2v-.29a5.52,5.52,0,0,1,.33-2,4.12,4.12,0,0,1,.91-1.45,3.84,3.84,0,0,1,1.34-.91,4.3,4.3,0,0,1,1.63-.31,3.52,3.52,0,0,1,1.69.41,2.9,2.9,0,0,1,1.2,1.27h.22V46.54h1.43v7.21c0,.36.17.55.49.55h.46v1.31h-1a1.34,1.34,0,0,1-1-.4,1.38,1.38,0,0,1-.4-1Zm-2.93.44a2.91,2.91,0,0,0,1.19-.24,2.79,2.79,0,0,0,.92-.68,3,3,0,0,0,.6-1.05,3.92,3.92,0,0,0,.22-1.36V51a3.9,3.9,0,0,0-.22-1.35,3,3,0,0,0-.61-1,2.9,2.9,0,0,0-.93-.69,2.92,2.92,0,0,0-2.34,0,2.76,2.76,0,0,0-.92.67,3,3,0,0,0-.61,1,3.9,3.9,0,0,0-.22,1.35v.29a3.43,3.43,0,0,0,.81,2.43A2.76,2.76,0,0,0,158.47,54.52Z"/><path class="cls-5" d="M167.44,55.61H166V46.54h1.43v1.53h.22a3,3,0,0,1,2.93-1.79,3.33,3.33,0,0,1,2.51,1A4.12,4.12,0,0,1,174,50.2v5.41H172.6V50.49a3.09,3.09,0,0,0-.64-2.14,2.19,2.19,0,0,0-1.74-.72,2.54,2.54,0,0,0-2,.89,3.59,3.59,0,0,0-.74,2.37Z"/><path class="cls-5" d="M184.24,54.22H184a2.54,2.54,0,0,1-.56.74,3.68,3.68,0,0,1-.73.51,3.91,3.91,0,0,1-.83.3,3.56,3.56,0,0,1-.84.1,4.51,4.51,0,0,1-1.7-.31,4.16,4.16,0,0,1-1.39-.9,4.21,4.21,0,0,1-.93-1.45,5.57,5.57,0,0,1-.34-2v-.29a5.32,5.32,0,0,1,.35-2A4.25,4.25,0,0,1,178,47.5a3.91,3.91,0,0,1,1.38-.91,4.41,4.41,0,0,1,1.66-.31,3.88,3.88,0,0,1,1.75.41A2.84,2.84,0,0,1,184,48h.22V42.8h1.43V55.61h-1.43Zm-3,.3a2.91,2.91,0,0,0,1.19-.24,2.85,2.85,0,0,0,1-.68,3,3,0,0,0,.65-1.05,3.7,3.7,0,0,0,.24-1.36V51a3.68,3.68,0,0,0-.24-1.35,3,3,0,0,0-4-1.75,2.79,2.79,0,0,0-1,.68,3,3,0,0,0-.64,1,3.63,3.63,0,0,0-.23,1.34v.29a3.68,3.68,0,0,0,.23,1.37,2.89,2.89,0,0,0,.64,1,2.94,2.94,0,0,0,1,.66A3.13,3.13,0,0,0,181.2,54.52Z"/><path class="cls-5" d="M199.26,47a5,5,0,0,1,.29-1.68,4.51,4.51,0,0,1,.86-1.43,4.26,4.26,0,0,1,1.41-1,4.9,4.9,0,0,1,1.94-.36,5,5,0,0,1,1.94.34,4.06,4.06,0,0,1,1.38.89,3.82,3.82,0,0,1,.81,1.27,3.94,3.94,0,0,1,.27,1.43v.33a3.64,3.64,0,0,1-.92,2.5,5.3,5.3,0,0,1-2.93,1.47,6.75,6.75,0,0,0-2.58,1,2.17,2.17,0,0,0-.82,1.84v.55h7.14v1.42h-8.68V53.42a3.76,3.76,0,0,1,.29-1.53,3.3,3.3,0,0,1,.84-1.12,4.4,4.4,0,0,1,1.31-.77,10.39,10.39,0,0,1,1.73-.53,5.2,5.2,0,0,0,2.36-1,2.18,2.18,0,0,0,.72-1.66v-.11a2.91,2.91,0,0,0-.17-1,2.42,2.42,0,0,0-.51-.86,2.53,2.53,0,0,0-.89-.62,3.34,3.34,0,0,0-1.29-.23,2.78,2.78,0,0,0-2.18.86,3.3,3.3,0,0,0-.78,2.29v.81h-1.54Z"/><path class="cls-5" d="M211.58,43.92a4.68,4.68,0,0,1,6.62,0,5.66,5.66,0,0,1,1.19,3.86v2.86a5.64,5.64,0,0,1-1.19,3.89,4.76,4.76,0,0,1-6.62,0,5.64,5.64,0,0,1-1.19-3.89V47.78A5.66,5.66,0,0,1,211.58,43.92Zm.35,4v2.64a4.93,4.93,0,0,0,.74,2.92,2.91,2.91,0,0,0,4.44,0,4.93,4.93,0,0,0,.75-2.92V47.89a6.62,6.62,0,0,0-.19-1.6,3.53,3.53,0,0,0-.56-1.24,2.71,2.71,0,0,0-.93-.82,3,3,0,0,0-2.59,0,2.68,2.68,0,0,0-.92.82,3.53,3.53,0,0,0-.56,1.24A6.64,6.64,0,0,0,211.93,47.89Z"/><path class="cls-5" d="M221.66,47a5,5,0,0,1,.29-1.68,4.51,4.51,0,0,1,.86-1.43,4.26,4.26,0,0,1,1.41-1,4.9,4.9,0,0,1,1.94-.36,5,5,0,0,1,1.94.34,4.06,4.06,0,0,1,1.38.89,3.82,3.82,0,0,1,.81,1.27,3.94,3.94,0,0,1,.27,1.43v.33a3.64,3.64,0,0,1-.92,2.5,5.3,5.3,0,0,1-2.93,1.47,6.75,6.75,0,0,0-2.58,1,2.17,2.17,0,0,0-.82,1.84v.55h7.14v1.42h-8.68V53.42a3.76,3.76,0,0,1,.29-1.53,3.3,3.3,0,0,1,.84-1.12,4.4,4.4,0,0,1,1.31-.77,10.39,10.39,0,0,1,1.73-.53,5.2,5.2,0,0,0,2.36-1,2.18,2.18,0,0,0,.72-1.66v-.11a2.91,2.91,0,0,0-.17-1,2.42,2.42,0,0,0-.51-.86,2.53,2.53,0,0,0-.89-.62,3.34,3.34,0,0,0-1.29-.23,2.8,2.8,0,0,0-2.18.86,3.3,3.3,0,0,0-.78,2.29v.81h-1.54Z"/><path class="cls-5" d="M234,43.92a4.68,4.68,0,0,1,6.62,0,5.66,5.66,0,0,1,1.19,3.86v2.86a5.64,5.64,0,0,1-1.19,3.89,4.76,4.76,0,0,1-6.62,0,5.64,5.64,0,0,1-1.19-3.89V47.78A5.66,5.66,0,0,1,234,43.92Zm.35,4v2.64a4.93,4.93,0,0,0,.74,2.92,2.91,2.91,0,0,0,4.44,0,4.93,4.93,0,0,0,.75-2.92V47.89a6.62,6.62,0,0,0-.19-1.6,3.53,3.53,0,0,0-.56-1.24,2.71,2.71,0,0,0-.93-.82,2.71,2.71,0,0,0-3.51.82,3.53,3.53,0,0,0-.56,1.24A6.64,6.64,0,0,0,234.33,47.89Z"/></svg>